<svg width="71" height="87" viewBox="0 0 71 87" fill="none" xmlns="http://www.w3.org/2000/svg">
<path d="M65.1822 24.086C66.6966 18.6247 63.497 12.9698 58.0357 11.4554C52.5744 9.94108 46.9195 13.1407 45.4052 18.602C43.8908 24.0633 47.0904 29.7181 52.5517 31.2325C58.013 32.7469 63.6679 29.5473 65.1822 24.086Z" fill="#848484"/>
<path d="M49.0279 29.7321C44.4041 26.2782 43.4527 19.7065 46.9066 15.0828C50.3605 10.459 56.9321 9.50683 61.5558 12.9607C66.1796 16.4147 67.1315 22.9864 63.6775 27.6104C60.2236 32.2344 53.6516 33.186 49.0279 29.7321ZM61.3095 13.2905C56.8676 9.97249 50.5544 10.8867 47.2361 15.3291C43.9178 19.7714 44.8322 26.0847 49.2742 29.4026C53.7165 32.7209 60.0298 31.8065 63.348 27.3644C66.6661 22.9219 65.7519 16.6088 61.3095 13.2905Z" fill="#231F20"/>
<path d="M60.7352 28.3131C64.5839 25.3087 65.2684 19.7532 62.264 15.9045C59.2597 12.0558 53.7042 11.3714 49.8555 14.3757C46.0068 17.38 45.3223 22.9355 48.3267 26.7842C51.331 30.6329 56.8865 31.3174 60.7352 28.3131Z" fill="#231F20"/>
<path d="M56.418 29.1267C60.7151 28.5044 63.6939 24.5164 63.0716 20.2194C62.4492 15.9224 58.4613 12.9435 54.1643 13.5659C49.8673 14.1883 46.8884 18.1762 47.5107 22.4732C48.1331 26.7702 52.121 29.7491 56.418 29.1267Z" fill="#848484"/>
<path d="M13.0408 65.0721L10.2626 62.9967L18.4465 52.0408C18.9956 51.3056 19.782 50.783 20.6723 50.5612L32.5506 47.6023C33.4607 47.3756 34.2615 46.8344 34.8116 46.0747L59.3039 12.2391C60.0362 11.2244 61.458 11.0065 62.4606 11.7555C63.458 12.5006 63.6566 13.9158 62.9027 14.9065L36.6929 49.4063C36.1447 50.128 35.3663 50.641 34.4868 50.86L22.5581 53.8315C21.6678 54.0533 20.8814 54.576 20.3323 55.3111L13.0408 65.0721Z" fill="#848484"/>
<path d="M13.0824 65.3602L9.97459 63.0387L18.2816 51.918C18.8573 51.1472 19.6885 50.5944 20.622 50.3617L32.5005 47.4031C33.3623 47.1883 34.1237 46.6739 34.6447 45.9545L59.1367 12.1187C59.5232 11.5831 60.0964 11.233 60.7491 11.133C61.4026 11.0329 62.0539 11.1954 62.5832 11.591C63.1098 11.9843 63.4504 12.5596 63.5417 13.2104C63.6332 13.8613 63.4641 14.5078 63.0663 15.031L36.8563 49.5307C36.2816 50.2873 35.4577 50.8306 34.5358 51.0596L22.6072 54.031C21.7655 54.2406 21.016 54.7394 20.497 55.4342L13.0824 65.3602ZM10.5504 62.9553L12.9992 64.7844L20.1675 55.1879C20.7432 54.4171 21.5744 53.8646 22.5079 53.6316L34.4367 50.6605C35.2677 50.4539 36.0107 49.9639 36.5286 49.2818L62.7386 14.7821C63.0697 14.347 63.2102 13.8091 63.1339 13.2674C63.0581 12.7258 62.7751 12.2476 62.337 11.9202C61.8967 11.5913 61.3551 11.456 60.8113 11.5393C60.2683 11.6225 59.7918 11.9139 59.47 12.3595L34.978 46.1953C34.4001 46.9938 33.5553 47.5641 32.5995 47.8019L20.7213 50.7609C19.8796 50.9705 19.1301 51.4693 18.6111 52.1641L10.5504 62.9553Z" fill="#231F20"/>
<path d="M62.6556 13.5197L57.1985 20.8683L51.7074 28.1912L40.6718 42.7963L37.8963 46.435L36.5014 48.2579C35.9931 48.875 35.3049 49.3423 34.5422 49.5809C31.5611 50.333 28.6152 51.0586 25.6446 51.7774L23.4207 52.3167L22.3102 52.5868C21.9531 52.6763 21.6093 52.8191 21.2913 53.006C20.975 53.1957 20.6823 53.4268 20.4321 53.6991C20.1848 53.9672 19.9674 54.2889 19.7333 54.5888L18.3519 56.4128L12.7937 63.6853L18.1905 56.2922L19.5477 54.4499C19.7794 54.1462 19.9853 53.8297 20.251 53.5326C20.5137 53.2398 20.8225 52.9893 21.1575 52.7829C21.4944 52.5792 21.8601 52.4218 22.2416 52.3211L23.3511 52.0365L25.568 51.4697L34.4284 49.2235C35.1216 49.0038 35.7453 48.576 36.2046 48.0137L37.5832 46.1963L40.3445 42.5468L51.4563 27.9996L57.0389 20.7464L62.6556 13.5197Z" fill="white"/>
<path d="M5.57441 75.7868L1.91251 73.0516C0.938969 72.3245 0.737489 70.9329 1.46459 69.9594L8.16182 60.9936C8.88892 60.0201 10.2805 59.8186 11.254 60.5457L14.9159 63.281C15.8894 64.0081 16.0909 65.3996 15.3638 66.3731L8.66659 75.3389C7.93948 76.3125 6.5479 76.5142 5.57441 75.7868Z" fill="#474747"/>
<path d="M6.37618 76.3284C6.05483 76.2568 5.74947 76.1177 5.47877 75.9154L1.81686 73.1802C0.770335 72.3982 0.55444 70.9105 1.33645 69.8638L8.03373 60.8978C8.81547 59.8512 10.3029 59.635 11.3503 60.4174L15.012 63.1526C16.059 63.9347 16.2744 65.4223 15.4924 66.4692L8.79518 75.4348C8.41783 75.9399 7.86424 76.2684 7.23644 76.3592C6.945 76.4016 6.65426 76.3902 6.37618 76.3284ZM10.3833 60.3174C10.1424 60.2638 9.89138 60.254 9.63913 60.2906C9.09567 60.3695 8.61689 60.6531 8.29063 61.0895L1.59336 70.0555C0.917295 70.9606 1.10379 72.247 2.00888 72.9231L5.67079 75.6583C6.10785 75.985 6.64708 76.1207 7.19022 76.0421C7.73369 75.9632 8.21247 75.6796 8.53828 75.243L15.2355 66.2775C15.5615 65.841 15.6978 65.3012 15.6192 64.7581C15.5403 64.2146 15.2567 63.7358 14.8203 63.4096L11.1586 60.6741C10.9246 60.4994 10.6609 60.3792 10.3833 60.3174Z" fill="black"/>
<path d="M3.32259 73.1239C2.73345 72.7445 2.37405 72.0174 2.41986 71.2878C2.4393 70.9228 2.56571 70.564 2.7691 70.2559L3.37041 69.3985C4.17242 68.2619 5.00028 67.1448 5.82836 66.0278C6.66429 64.9165 7.50078 63.8059 8.36278 62.7142L9.01446 61.8945C9.25243 61.6118 9.56063 61.389 9.90525 61.2665C10.5922 61.0159 11.3914 61.1542 11.9224 61.612C11.3375 61.2323 10.5831 61.1665 9.98058 61.4539C9.67634 61.5842 9.41331 61.7965 9.21782 62.0565L8.61641 62.9038C7.81423 64.0401 6.98632 65.1574 6.15807 66.2742C5.32174 67.3851 4.48547 68.4959 3.6233 69.5873L2.98176 70.4045C2.78763 70.6658 2.65908 70.9785 2.62012 71.307C2.51506 71.9664 2.7924 72.671 3.32259 73.1239Z" fill="white"/>
<path d="M58.6009 27.5353C62.0177 25.7092 63.3073 21.4588 61.4811 18.0419C59.6549 14.6251 55.4045 13.3356 51.9877 15.1617C48.5708 16.9879 47.2813 21.2383 49.1075 24.6552C50.9337 28.072 55.184 29.3615 58.6009 27.5353Z" fill="black"/>
<path d="M60.5367 18.8667C60.9137 19.557 61.1335 20.3352 61.206 21.1291C61.2668 21.9246 61.1653 22.7352 60.9132 23.4997C60.4082 25.0338 59.2365 26.3287 57.7757 27.0323C56.3063 27.7182 54.5619 27.8035 53.0545 27.2237C52.3032 26.9345 51.6118 26.4993 51.0343 25.9486C50.4662 25.3897 50.0032 24.7263 49.7078 23.9973C50.4531 25.38 51.7074 26.4462 53.1609 26.9255C54.6092 27.4133 56.2338 27.3297 57.5995 26.6607C58.983 26.0282 60.0755 24.8231 60.6162 23.3935C61.1658 21.9653 61.1352 20.319 60.5367 18.8667Z" fill="white"/>
</svg>
